<svg width="107" height="99" viewBox="0 0 107 99" fill="none" xmlns="http://www.w3.org/2000/svg">
<path d="M76.4607 0C93.029 0.000247571 106.461 13.4316 106.461 30V68.1162C106.46 84.6844 93.0289 98.116 76.4607 98.1162H30.5398C13.9714 98.1162 0.540022 84.6846 0.539795 68.1162V30C0.539806 13.4315 13.9713 0 30.5398 0H76.4607ZM16.9998 16L44.8708 52.4688L18.4822 82.7109H29.7488L50.2078 59.4365L67.9968 82.7109H90.8269L61.7703 44.3154L86.3796 16H75.113L56.5818 37.3477L40.4226 16H16.9998ZM37.0134 22.375L77.3367 75.8916H71.1101L30.1941 22.375H37.0134Z" fill="#1ED760"/>
</svg>
