<svg width="97" height="98" viewBox="0 0 97 98" fill="none" xmlns="http://www.w3.org/2000/svg">
<path d="M67 0C83.5685 9.66391e-07 97 13.4315 97 30V68C97 84.5685 83.5685 98 67 98H30C13.4315 98 1.61075e-07 84.5685 0 68V30C0 13.4315 13.4315 0 30 0H67ZM60.2646 34.2295C55.6866 34.2297 51.8315 36.8905 49.4219 36.8906C46.8918 36.8906 43.5182 34.3448 39.4219 34.3447C31.711 34.3447 24 40.4767 24 51.9297C24.1205 58.9865 26.4099 65.6962 30.3857 71.4805C33.3977 75.645 36.0481 78.9998 39.9033 79C43.7587 79 45.4458 76.5703 50.1445 76.5703C54.9636 76.5703 56.1686 78.8846 60.2646 78.8848C64.361 78.8848 67.1326 75.182 69.7832 71.5957C71.5903 69.0507 73.0362 66.2743 74 63.2666C69.0603 61.2999 65.8076 56.5565 65.8076 51.3506C65.8078 46.7234 68.3375 42.5593 72.4336 40.1299C69.6625 36.3122 65.0839 34.1138 60.2646 34.2295ZM61.2285 20C57.7347 20.3471 54.4815 21.9667 52.1924 24.5117C50.1443 26.7097 48.9398 29.4864 48.8193 32.4941C48.8193 32.8411 48.819 33.1882 48.9395 33.5352C49.1804 33.5352 49.5422 33.6514 49.7832 33.6514C53.0362 33.42 56.0485 31.7995 58.0967 29.3701C60.1446 27.0566 61.2291 24.1648 61.3496 21.1572C61.3496 20.8102 61.349 20.3471 61.2285 20Z" fill="#1ED760"/>
</svg>
