<svg width="97" height="98" viewBox="0 0 97 98" fill="none" xmlns="http://www.w3.org/2000/svg">
<path d="M67 0C83.5685 9.66391e-07 97 13.4315 97 30V68C97 84.5685 83.5685 98 67 98H30C13.4315 98 1.61075e-07 84.5685 0 68V30C0 13.4315 13.4315 0 30 0H67ZM48.7344 13C34.7656 13.0001 22.6807 21.0079 16.8008 32.6865C14.2994 37.6661 12.9978 43.1619 13 48.7344C13 54.5005 14.3807 59.9581 16.8008 64.7822C22.6807 76.4608 34.7656 84.4686 48.7344 84.4688C58.0813 84.4688 65.9653 81.466 71.8242 76.3164L72.3848 75.8115C79.1417 69.5905 83.04 60.4294 83.04 49.5469C83.04 47.013 82.812 44.5763 82.3896 42.2373H48.7344V56.0596H67.9668C67.1643 60.387 64.776 64.0746 61.1865 66.6045L60.8359 66.8457C57.6361 68.9898 53.5423 70.2559 48.7344 70.2559C39.4273 70.2557 31.5493 63.9697 28.7393 55.5234C28.0247 53.3795 27.6191 51.0894 27.6191 48.7344C27.6191 46.5264 27.9759 44.3755 28.6094 42.3486L28.7393 41.9453C31.5493 33.4991 39.4273 27.213 48.7344 27.2129C53.9808 27.2129 58.6912 29.0158 62.3945 32.5566L72.6445 22.3076C66.456 16.5414 58.3664 13 48.7344 13Z" fill="#1ED760"/>
</svg>
